<svg width="40" height="40" viewBox="0 0 40 40" fill="none" xmlns="http://www.w3.org/2000/svg">
    <!-- Background circle with green gradient -->
    <circle cx="20" cy="20" r="18" fill="url(#paint0_linear)" stroke="url(#paint1_linear)" stroke-width="2"/>
    
    <!-- Dollar sign vertical line -->
    <line x1="20" y1="9" x2="20" y2="31" stroke="#FFFFFF" stroke-width="2.5" stroke-linecap="round"/>

    <!-- Dollar sign S-curve -->
    <path d="M24 14C24 12.3431 22.6569 11 21 11H18C16.3431 11 15 12.3431 15 14C15 15.6569 16.3431 17 18 17H22C23.6569 17 25 18.3431 25 20C25 21.6569 23.6569 23 22 23H18C16.3431 23 15 24.3431 15 26C15 27.6569 16.3431 29 18 29H21C22.6569 29 24 27.6569 24 26"
          stroke="#FFFFFF" stroke-width="2.8" stroke-linecap="round" stroke-linejoin="round" fill="none"/>
    
    <defs>
        <linearGradient id="paint0_linear" x1="2" y1="2" x2="38" y2="38" gradientUnits="userSpaceOnUse">
            <stop offset="0%" stop-color="#10B981"/>
            <stop offset="50%" stop-color="#059669"/>
            <stop offset="100%" stop-color="#047857"/>
        </linearGradient>
        <linearGradient id="paint1_linear" x1="2" y1="2" x2="38" y2="38" gradientUnits="userSpaceOnUse">
            <stop offset="0%" stop-color="#065F46"/>
            <stop offset="100%" stop-color="#064E3B"/>
        </linearGradient>
    </defs>
</svg>